<svg height="103.09766pt" viewBox="0 0 87.345645 103.09766" width="87.34565pt" xmlns="http://www.w3.org/2000/svg"><g fill="#162258"><path d="m72.951113 8.054689c-.0469-.0117-.11718-.0195-.19531-.0312-.3125-.043-.55078-.24219-.55078-.67969v-4.41406c0-.0781-.0195-.13281-.0781-.16406-.0703-.043-.13671-.0195-.20312.0156l-1.53125.75c-.0664.0312-.0859.0781-.0781.14063.004.0664.0273.10937.11329.13281l.30859.0859c.25781.0703.35937.23437.35937.77734v2.67578c0 .4375-.23828.63672-.54687.67969-.082.0117-.14844.0195-.20313.0312-.0625.008-.10546.0547-.10546.10547v.18359c.9375-.0547 1.88281-.0547 2.82031 0v-.18359c0-.0508-.043-.0977-.10938-.10547"/><path d="m71.650333 1.410159c.39063 0 .70313-.31641.70313-.70313 0-.39062-.3125-.70703-.70313-.70703-.39062 0-.70312.31641-.70312.70703 0 .38672.3125.70313.70312.70313"/><path d="m20.447213 8.054689c-.0508-.0117-.11719-.0195-.19922-.0312-.3125-.043-.54688-.24219-.54688-.67969v-4.41406c0-.0781-.0195-.13281-.0781-.16406-.0703-.043-.13672-.0195-.20313.0156l-1.53125.75c-.0664.0312-.0859.0781-.0781.14063.004.0664.0273.10937.11328.13281l.30469.0859c.26172.0703.35937.23437.35937.77734v2.67578c0 .4375-.23437.63672-.54687.67969-.0781.0117-.14844.0195-.19922.0312-.0625.008-.10547.0547-.10547.10547v.18359c.93359-.0547 1.88281-.0547 2.82031 0v-.18359c0-.0508-.043-.0977-.10937-.10547"/><path d="m19.146433 1.410159c.38671 0 .70312-.31641.70312-.70313 0-.39062-.31641-.70703-.70312-.70703-.39063 0-.70313.31641-.70313.70703 0 .38672.3125.70313.70313.70313"/><path d="m56.083933 4.593749c.1875-.88281.71875-1.57422 1.46484-1.57422.58984 0 1.14453.47266 1.19141 1.57422zm1.57421-1.85156c-1.49609 0-2.6875 1.28515-2.6875 2.875 0 1.71484 1.16016 2.87109 2.73047 2.87109.76172 0 1.40235-.33984 1.84375-.88281.1836-.23047.20313-.30859.125-.37891-.0781-.0703-.16797.004-.42187.1836-.34375.24609-.82813.38281-1.22266.38281-.75 0-1.61328-.50391-1.89453-1.55078-.11719-.42188-.14453-.85938-.10547-1.27735h3.48047c.0977 0 .17188-.0312.24609-.11718.0703-.0859.0781-.14844.0742-.2461-.0625-1.24218-1.22656-1.85937-2.16797-1.85937"/><path d="m12.982363 4.593749c.1875-.88281.71485-1.57422 1.46485-1.57422.58984 0 1.14062.47266 1.1914 1.57422zm1.57422-1.85156c-1.49609 0-2.6875 1.28515-2.6875 2.875 0 1.71484 1.16016 2.87109 2.73047 2.87109.76172 0 1.40234-.33984 1.84375-.88281.18359-.23047.20313-.30859.125-.37891-.0781-.0703-.17187.004-.42187.1836-.34375.24609-.82813.38281-1.22266.38281-.75 0-1.61328-.50391-1.89844-1.55078-.11328-.42188-.14062-.85938-.10156-1.27735h3.48047c.10156 0 .17187-.0312.24609-.11718.0703-.0859.0781-.14844.0742-.2461-.0625-1.24218-1.22656-1.85937-2.16797-1.85937"/><path d="m24.134713 8.210939c-.76563 0-1.44141-.91406-1.44141-2.59375s.67578-2.59766 1.44141-2.59766c.76953 0 1.4375.91797 1.4375 2.59766s-.66797 2.59375-1.4375 2.59375m0-5.46875c-1.48438 0-2.6875 1.28515-2.6875 2.875 0 1.58594 1.20312 2.87109 2.6875 2.87109 1.48437 0 2.6875-1.28515 2.6875-2.87109 0-1.58985-1.20313-2.875-2.6875-2.875"/><path d="m11.740183 8.054689c-.0195-.004-.0469-.008-.0742-.0117-.41407-.0508-.76172-.24609-1.03516-.55859l-3.8320302-4.41797 2.50781-2.17578c.38672-.33204.8164102-.50391 1.3046902-.57032.0898-.0117.16016-.0195.21484-.0273.0664-.008.11328-.0508.11328-.10938v-.18359c-.9960902.0547-2.0078102.0547-3.0039002 0v.18359c0 .0586.0469.10157.11328.10938.11719.0156.32031.043.54687.0703.26172.0273.20704.1875.0977.29297l-3.17578 3.00781v-2.59375c0-.49218.27734-.71093.58984-.75781.0586-.008.10938-.0156.14844-.0195.0664-.008.10547-.0547.10547-.10938v-.18359c-.93359.0547-1.95703.0547-2.89063 0v.18359c0 .0547.043.10157.10938.10938.0352.004.0859.0117.14453.0195.3125.0469.58984.26563.58984.75781v6.20313c0 .49219-.27734.71484-.58984.75781-.0586.008-.10937.0156-.14844.0234-.0625.008-.10547.0547-.10547.10547v.18359c.9336-.0547 1.95704-.0547 2.89063 0v-.18359c0-.0508-.0391-.0977-.10547-.10547-.0391-.008-.0898-.0156-.14844-.0234-.3125-.043-.58984-.26562-.58984-.75781v-3.10156l.33984-.29297 3.30078 3.80859c.11329.13281.14454.28906-.12109.31641-.17578.0195-.32422.0391-.41406.0508-.0664.008-.10938.0547-.10938.10547v.18359c1.1211-.0547 2.2148502-.0547 3.3359402 0v-.18359c0-.0508-.043-.0977-.10937-.10547"/><path d="m35.814393-.000001v.18359c0 .0547.0312.0977.10938.10938.0664.008.15625.0234.26562.0391.41797.0547.73829.17969.73829 2.41016v2.72656c0 1.51953-1.01954 2.28125-2.26563 2.28125s-2.21094-.6875-2.21094-2.28125v-4.39844c0-.49218.27735-.71093.58985-.75781.0586-.008.10937-.0156.14843-.0195.0625-.0117.10547-.0547.10547-.10938v-.18359c-.93359.0547-2.03125.0547-2.96484 0v.18359c0 .0547.0391.0977.10547.10938.0391.004.0898.0117.14844.0195.3125.0469.58984.26563.58984.75781v4.27735c0 2.43359 1.48047 3.14062 3.18359 3.14062 1.77735 0 3.16407-.8789 3.16407-3.14062v-2.60547c0-2.23047.32031-2.35547.73437-2.41016.10938-.0156.20313-.0312.26563-.0391.0781-.0117.11328-.0547.11328-.10938v-.18359c-.9375.0547-1.88282.0547-2.82032 0"/><path d="m52.646433 2.886719v.18359c0 .0508.0508.10157.10546.10938.082.0117.17188.0312.27344.0508.21875.043.32422.17578.24219.41406l-1.14063 3.25-1.1914-3.27734c-.0859-.23828.0234-.3711.24219-.40625.0781-.0117.14843-.0234.20312-.0312.0547-.008.10938-.0586.10938-.10938v-.18359c-.9336.0547-1.54297.0547-2.47657 0v.18359c0 .0508.0547.10157.10547.10938.0156 0 .0274.004.0391.008.38672.0586.5586.20703.6875.5625l1.72266 4.73828h.37109l1.91407-4.71875c.1289-.32031.27734-.5.69922-.57812.0273-.004.0547-.008.0781-.0117.0547-.008.10938-.0586.10938-.10938v-.18359c-.9336.0547-1.16016.0547-2.09375 0"/><path d="m64.529243 2.765629c-.64844-.11719-1.3086.2539-1.7461.85937v-.69531c0-.0781-.0195-.13281-.0742-.16406-.0742-.043-.1211-.0195-.19141.0156l-1.53125.75c-.0664.0312-.0859.0781-.0781.14063.004.0664.0312.10937.11329.13281l.30859.0859c.25781.0703.35937.23437.35937.77734v2.67578c0 .44141-.23828.63672-.54687.67969-.082.0117-.14844.0195-.19922.0312-.0664.008-.10937.0547-.10937.10547v.18359c.93359-.0547 2.01562-.0547 2.94921 0v-.18359c0-.0508-.043-.0977-.10546-.10547-.0508-.0117-.1211-.0195-.19922-.0312-.46094-.0625-.69532-.21875-.69532-.67969v-2.57031c0-1.03125.38282-1.44922 1.19922-1.07031.56641.26562.88672.1875 1.04297-.21094.14844-.37891-.125-.66406-.49609-.72656"/><path d="m67.681583 4.968749c-.58594-.38281-1.01172-.61328-1.01172-1.12109 0-.4375.27735-.79688.77735-.79688.50781 0 .9375.61719 1.125 1.03906.0234.0586.0703.0977.1289.082.082-.0195.10157-.0586.10157-.1211v-1.0625c-.49219-.19531-1.0586-.24609-1.35547-.24609-.57813 0-1.65235.37109-1.65235 1.39453 0 .73047.35157 1.16797 1.16016 1.70312.57422.38282 1.32812.69922 1.32812 1.38282 0 .59765-.5625.94531-1.03125.94531-.70312 0-1.14453-.71094-1.33203-1.51953-.0195-.0859-.0703-.11328-.14453-.1211-.0742-.008-.11328.0352-.13281.13282-.0234.13672-.23438 1.03515-.23438 1.03515.29688.3711 1.09375.79297 1.83204.79297 1.05078 0 1.95703-.54687 1.95703-1.66406 0-.96875-.77344-1.375-1.51563-1.85547"/><path d="m77.279243 7.699219c-.23828.10547-.51953.24219-.81641.24219-.55078 0-.85156-.32422-.85156-.98828v-3.5625h1.34766c.19531 0 .21875-.0742.21875-.28907v-.17578h-1.56641v-.96484c0-.13672.004-.22266-.0703-.26563-.0664-.0391-.125-.0352-.19532.0234l-1.53125 1.36328c-.0664.0586-.0781.0937-.0781.17578.004.0664.0312.11328.11328.13282l.30859.082c.25782.0664.34766.23828.34766.7539v2.96094c0 1.12109.95703 1.30078 1.42578 1.30078s1.01172-.15234 1.44531-.46094c.25391-.18359.31641-.28125.26172-.35546-.0703-.11329-.13672-.0742-.35937.0273"/><path d="m81.099553 2.886719v.18359c0 .0508.0547.10157.10547.10938.082.0117.17187.0312.27344.0508.21875.043.32812.17578.24218.41406l-1.13671 3.25-1.19532-3.27734c-.0859-.23828.0234-.3711.24219-.40625.0781-.0117.14844-.0234.20313-.0312.0547-.008.10937-.0586.10937-.10938v-.18359c-.93359.0547-1.41016.0547-2.34766 0v.18359c0 .0508.0547.10157.10938.10938.0117 0 .0234.004.0391.008.36719.0547.44531.25781.55469.5625l1.66406 4.57031-.0703.16797-.55078 1.35938c-.1836.45703-.38672.5-.80078.51172-.41407.0156-.54297.24218-.54297.48828 0 .35156.21875.52734.60156.52734.40625 0 .75-.30859.91016-.70312l2.79687-6.90235c.12891-.32031.27735-.5.69922-.57812.0273-.004.0547-.008.082-.0117.0508-.008.10547-.0586.10547-.10938v-.18359c-.93359.0547-1.16016.0547-2.09375 0"/><path d="m45.365183 8.054689c-.0469-.008-.11719-.0156-.19532-.0273-.3125-.043-.55078-.24218-.55078-.67968v-2.59375c0-1.08985-.41797-2.00782-1.66797-2.00782-.83593 0-1.48437.3125-1.91015.8711v-.6875c0-.0742-.0117-.12891-.0703-.16406-.0703-.043-.10937-.0195-.17578.0156l-1.53125.74609c-.0703.0312-.0859.0781-.082.14063.004.0703.0312.10937.11328.13281l.3086.0859c.26172.0703.35547.23437.35156.78125v2.67578c0 .4375-.23828.63672-.55078.67578-.082.0117-.14844.0195-.19922.0273-.0664.0117-.10547.0586-.10547.11328v.17968c.93359-.0508 1.84375-.0508 2.77734.008 0-.0586.004-.125.004-.17969 0-.0547-.043-.10156-.10937-.11328-.0508-.008-.11719-.0195-.19922-.0273-.29688-.043-.53125-.24609-.53125-.67968v-2.59375c0-.83203.5039-1.50391 1.32422-1.50391.96484 0 1.16015.78125 1.16015 1.50391v2.59375c0 .4375-.23828.64062-.53515.67968-.082.0117-.14844.0195-.19922.0273-.0664.0117-.10938.0586-.10938.11328v.17969c.9375-.0547 1.85938-.0547 2.79297 0v-.17969c0-.0547-.043-.10156-.10937-.11328"/><path d="m48.888613 8.054689c-.0469-.0117-.11718-.0195-.19531-.0312-.3125-.043-.55078-.24219-.55078-.67969v-4.41406c0-.0781-.0195-.13281-.0742-.16406-.0742-.043-.13672-.0195-.20703.0156l-1.53125.75c-.0664.0312-.0859.0781-.0781.14063.004.0664.0312.10937.11329.13281l.30859.0859c.26172.0703.35937.23437.35937.77734v2.67578c0 .4375-.23437.63672-.54687.67969-.082.0117-.14844.0195-.19922.0312-.0664.008-.10937.0547-.10937.10547v.18359c.9375-.0547 1.88671-.0547 2.82031 0v-.18359c0-.0508-.043-.0977-.10938-.10547"/><path d="m47.587833 1.410159c.39063 0 .70703-.31641.70703-.70313 0-.39062-.3164-.70703-.70703-.70703-.39062 0-.70312.31641-.70312.70703 0 .38672.3125.70313.70312.70313"/></g><path d="m35.361273 16.921879v60.00781c2.37109 1.32422 5.01953 2.51953 7.97266 3.5664 2.94921-1.04687 5.59765-2.24218 7.97265-3.5664v-60.00781c-5.25-.27344-10.69531-.27344-15.94531 0" fill="#cf1527"/><path d="m16.755803 19.374999v22.58984c0 14.00391 4.15625 26.89844 18.60547 34.96485v-60.00781c-6.82031.35546-13.30469 1.17187-18.60547 2.45312" fill="#162258"/><path d="m51.306583 16.921879v60.00781c14.44531-8.06641 18.60156-20.96094 18.60156-34.96485v-22.58984c-5.30078-1.28125-11.78515-2.09766-18.60156-2.45312" fill="#162258"/><g fill="#fcc707"><path d="m58.201113 40.632809c-.6875-2.38281.19141-6.52734 1.38672-8.89843l-.51562-.51563-4.35938 4.36328c.24219.4375.17969 1-.1914 1.375-.44922.44922-1.17969.44922-1.625 0-.45313-.44922-.45313-1.17578 0-1.6289.37109-.3711.93359-.4336 1.37109-.1875l4.36328-4.36329-.51172-.51171c-2.37109 1.1914-6.51953 2.07031-8.90234 1.38281v.004l-5.4375 6.27344 7.52734 8.6836zm0 0"/><path d="m28.849553 55.152339c-.69531.80469-1.00391 1.86719-.85547 2.91797.28125 1.96485 1.82422 3.50782 3.78906 3.78516 1.04688.15234 2.11329-.16016 2.91407-.85156l8.03906-6.96875-7.375-6.39453zm0 0"/><path d="m37.376893 31.652339-.004-.004c-2.38281.6914-6.52735-.19141-8.89844-1.38672l-.51562.51562 4.36718 4.35938c.4375-.24219 1-.17969 1.3711.19141.44922.45312.44922 1.17968 0 1.6289s-1.17969.44922-1.62891 0c-.37109-.375-.43359-.9375-.1875-1.375l-4.36328-4.36328-.51563.51563c1.19532 2.36718 2.07813 6.51562 1.39063 8.89843l23.50391 20.3711c.80078.6914 1.86328 1.0039 2.91406.85156 1.96484-.27734 3.50781-1.82031 3.78515-3.78516.15235-1.05078-.15625-2.11328-.85156-2.91797zm0 0"/></g><g fill="#162258"><path d="m4.1659628 77.277339 2.10547-.375-1.40625 1.62891zm-.1836 3.95313c-.0117-.0273-.0234-.0547-.0391-.0977-.0859-.22656.0352-.4375.19141-.61718l3.09375-3.58204c.082-.0937.0742-.19531.0195-.29687l-.0273-.043-.043-.0781-4.6836.60937c-.32031.043-.6875.0742-.875-.14844-.008-.0117-.0391-.0469-.0508-.0586-.0234-.0312-.0625-.043-.0937-.0273-.0273.0156-.0664.0391-.0977.0547.3125.49219.51172.84766.76563 1.3711.0312-.0195.0703-.0391.10156-.0586.0274-.0117.0352-.0586.0234-.0859-.0156-.0586-.0312-.0898-.0625-.1875-.0742-.22266.14844-.38672.51953-.45313l1.14453-.20312.80078 1.42578-.92187 1.07031c-.13672.15625-.32422.21484-.49219.0234-.0547-.0625-.0781-.0898-.13672-.16016-.0234-.0234-.0625-.0391-.0937-.0234-.0273.0156-.0664.0391-.0976.0547.3125.49219.67578 1.13672.92968 1.66016.0274-.0156.0664-.0391.0977-.0547.0273-.0156.0352-.0625.0273-.0937"/><path d="m18.876893 90.265629c.0312.0195.0586.0351.0781.0508.0352.0195.0742.0156.0937-.0117.0234-.0234.0508-.0586.0742-.0859-.32813-.24219-.74219-.58203-1.0625-.86328l-3.73828 1.83594 1.08984-4.0586c-.33203-.26562-.73437-.61328-1.03516-.89453-.0234.0234-.0469.0586-.0703.0859-.0234.0234-.0195.0625.008.0937.0156.0195.0352.043.0586.0703.13281.14453.17578.35938-.0195.59375l-1.8125 2.15625c-.88672 1.0586-1.11328.97266-1.33594.83594-.0586-.0391-.10547-.0703-.14063-.0898-.043-.0274-.0742-.0195-.0977.008-.0195.0273-.0469.0586-.0703.0859.46484.34765.91796.73046 1.33984 1.125.0234-.0274.0508-.0586.0742-.0859.0234-.0274.0234-.0586-.008-.0937-.0312-.0312-.0664-.0742-.11329-.125-.17578-.19531-.30078-.39844.58985-1.46094l1.75-2.08594-1.17969 4.41016.17188.14844 4.14062-1.92969-2.41797 2.88281c-.19531.23047-.41797.22656-.58594.1211-.0273-.0195-.0547-.0352-.0781-.0469-.0312-.0234-.0703-.0156-.0937.0117s-.0508.0586-.0703.082c.46484.35156.94922.75781 1.375 1.15625.0195-.0234.0508-.0586.0703-.0859.0234-.0273.0195-.0625-.008-.0976-.0156-.0156-.0352-.0391-.0586-.0664-.13281-.14844-.17578-.35937.0195-.59375l2.48047-2.95312c.19532-.23047.41407-.22657.58203-.125"/><path d="m22.458933 92.246089c-.0195.0274-.043.0625-.0586.0937-.0195.0312-.004.0703.0195.0937.043.0391.0703.0625.14453.12891.17579.16016.0625.41016-.23046.64844l-2.67579 2.19922.74219-3.64844c.043-.19922.17969-.33984.41797-.25781.0781.0234.10938.0391.19922.0703.0312.0117.0742.004.0898-.0234.0195-.0312.043-.0703.0586-.0976-.51172-.27344-1.14063-.66016-1.61719-.99219-.0195.0273-.043.0664-.0625.0976-.0156.0274-.004.0703.0234.0899.0234.0234.0469.0391.0781.0703.1875.15625.1836.39844.13672.62891l-.97656 4.80468.004.004.19922.12109v.004l.0156-.0156 3.76562-2.8086c.26172-.19531.56641-.40625.83594-.30078.0156.004.0586.0234.0742.0273.0352.0117.0781.004.0937-.0234.0195-.0274.0391-.0664.0586-.0977-.51172-.27344-.85937-.48828-1.33593-.81641"/><path d="m26.787053 94.667969c-.32031-.34766-.6875-.64453-1.04297-.8125-.46484-.21875-1.59375-.53125-2.07031.48437-.47656 1.00391.36719 1.71875.67187 2.125.30079.41016.85157.94922.55079 1.58594-.3086.64844-.97657.5586-1.36329.37891-.37109-.17969-.92968-.65625-.875-1.89844.004-.0859-.0234-.13281-.0898-.16406l-.0703-.0312-.42969 1.23828c.27344.33984.61719.76953 1.35547 1.11719.73828.35156 1.71094.36718 2.21094-.6875.30078-.63672.0391-1.22657-.50782-1.86328-.52343-.61719-1.05468-1.14063-.78515-1.70704.26953-.57031.84375-.52734 1.23047-.34375.45703.21485.68359.74219.55859 1.45313-.0117.082.0117.12891.0781.16016l.0742.0351zm0 0"/><path d="m32.576113 99.402339c-.008.0312-.0195.0742-.0273.10547-.0117.0352.008.0703.043.0859.0234.008.0508.0234.0859.0352.17968.0781.30859.2539.23046.546871 0 0-.10937.40235-.26171.96094-.45313.19141-.94532.24609-1.39454.12109-1.13281-.30468-1.5-1.515621-1.15234-2.792971.34766-1.27734 1.35156-2.11718 2.40625-1.83203.89844.2461 1.29688.95313 1.34766 1.81641.004.082.0351.125.10547.14062l.10546.0312.30079-1.11328c-.34766-.54297-1.00782-.9375-1.78516-1.14843-1.47266-.39844-2.98438.43359-3.36719 1.86328-.42969 1.57422.48828 2.910151 1.96094 3.312501h.004c.79296.21484 1.57812.13672 2.1875-.1836.15625-.57422.26562-.97656.26562-.97656.0781-.29297.28125-.382811.47656-.35937.0352.008.0664.0117.0899.0117.043.008.0742-.0156.082-.0508.0117-.0312.0234-.0703.0312-.10547-.57031-.12109-1.1836-.28515-1.73438-.46875"/><path d="m37.478463 97.644529c.0391-.004.0703-.0273.0742-.0625.004-.0351.008-.0781.0156-.10937-.58203-.043-1.21094-.125-1.78125-.23438-.008.0352-.0117.0781-.0156.11328-.004.0312.0156.0625.0586.0742.0234.008.0508.0156.0859.0274.1914.0508.34375.21093.30468.51171l-.5 3.824221c-.0391.30078-.22656.41407-.42187.41407-.0391.004-.0703.004-.0937.004-.043 0-.0703.0234-.0742.0586-.004.0351-.0117.0781-.0156.10937.58203.043 3.54296.42969 4.11328.53906.004-.0351.42968-1.21875.42968-1.21875l-.10546-.0156c-.0781-.0117-.10157.0156-.15235.0898-.39453.60156-1.21484.71875-1.6875.65625-.29687-.0391-.45312-.0586-.52734-.0703-.15235-.0195-.36328-.0547-.46094-.11328-.24609-.15235-.26953-.28125-.16797-1.07813l.40625-3.101561c.0391-.30469.22656-.41797.42188-.41797zm0 0"/><path d="m9.3534628 80.484379c.0273.0273.0664.0312.0937.0117s.0625-.0469.0898-.0664c-.36719-.44922-.74219-.96485-1.05469-1.45313-.0273.0195-.0625.0469-.0898.0664-.0273.0234-.0352.0586-.0195.0937.0117.0234.0273.0508.043.082.0937.17578.082.39453-.16407.57422l-3.11718 2.26172c-.2461.17969-.46094.12109-.59766-.0195-.0234-.0273-.0469-.0508-.0625-.0664-.0273-.0312-.0664-.0352-.0937-.0156-.0273.0195-.0664.0469-.0937.0664.37109.44922 2.125 2.86719 2.4375 3.35938.0273-.0234 1.17969-.53125 1.17969-.53125l-.0625-.082c-.043-.0625-.0781-.0664-.16797-.0508-.71094.12891-1.35547-.39062-1.63672-.77343-.17578-.24219-.26562-.36719-.30859-.42969-.0937-.12891-.21485-.30078-.23828-.41797-.0547-.27734.0195-.38672.67187-.85937l2.53125-1.83594c.24609-.17969.45703-.1211.59375.0195l.0664.0664"/><path d="m9.8417428 85.531249 1.9726502-.83984-1.00781 1.90234zm.7109402 3.89453c-.0195-.0234-.0352-.0469-.0586-.0859-.13672-.20312-.0625-.43359.0469-.64453l2.21093-4.18359c.0586-.11328.0273-.21094-.0469-.29297l-.0352-.0391-.0625-.0664-4.4257802 1.64453c-.30469.11328-.65234.23047-.88672.0508-.0117-.008-.0469-.0352-.0625-.0469-.0273-.0195-.0703-.0234-.0937-.004-.0273.0234-.0586.0547-.0859.0781.41406.40625.6875.70703 1.05468 1.16015.0234-.0234.0586-.0508.082-.0742.0273-.0234.0234-.0664.008-.0937-.0312-.0508-.0508-.0781-.10547-.16797-.1211-.19922.0547-.41016.40234-.55469l1.07422-.45703 1.0976602 1.21484-.65625 1.24219c-.0977.18359-.2695302.28125-.4765702.13672-.0664-.0469-.0937-.0703-.16796-.125-.0274-.0195-.0703-.0234-.0977-.004-.0234.0234-.0547.0547-.082.0781.41406.40625.9101502.95312 1.2773402 1.40625.0274-.0234.0547-.0508.082-.0742.0274-.0234.0274-.0664.008-.0977"/><path d="m41.482363 100.75391.74219-2.011721.69141 2.042971zm3.31641 2.16015c-.0273-.004-.0586-.0117-.10156-.0156-.23828-.043-.35938-.25391-.4336-.47656l-1.52343-4.480471c-.0391-.125-.13282-.16797-.2461-.16797l-.0508-.004h-.0898l-1.84766 4.343751c-.125.30078-.28125.63281-.57031.6836-.0156 0-.0586.008-.0781.0117-.0351.008-.0664.0352-.0664.0664-.004.0352-.004.0781-.004.11328.58203-.0195.98828-.0117 1.56641.0352.004-.0352.004-.082.004-.11328 0-.0352-.0312-.0625-.0664-.0703-.0547-.0117-.0899-.0195-.1875-.0391-.23047-.0469-.26172-.32031-.12891-.67578l.40234-1.09375 1.63672.0352.45703 1.33593c.0625.19532.0195.38672-.23046.4375-.082.0156-.11329.0195-.20704.0391-.0312.004-.0664.0312-.0664.0664s-.004.0781-.004.11328c.58203-.0234 1.32031-.008 1.90235.0391 0-.0352 0-.0781 0-.11328 0-.0352-.0312-.0625-.0664-.0703"/><path d="m47.818303 102.5625c-.40234.043-.46484.043-.50391.0391-.19531-.004-.4375-.10937-.46875-.41406l-.39062-3.664061c-.0352-.30078.125-.44531.3125-.49219.0352-.008.15234-.0273.45312-.0625 1.67188-.17969 2.37891.79297 2.51172 2.062501.17578 1.62109-.54687 2.38672-1.91406 2.53125m-.625-4.867191c-1.30078.13672-1.50391.19141-2.08594.22266.004.0352.008.0781.0117.11328.004.0352.0352.0586.0742.0586.0273 0 .0547.004.0937.004.19531.008.38281.125.41406.42969l.41025 3.831891c.0312.30078-.125.45703-.31641.50391-.0351.0117-.0664.0156-.0859.0234-.043.0117-.0664.0391-.0625.0742.004.0352.0117.0781.0117.11328.57422-.0937.77344-.082 2.26954-.24218 1.47656-.16016 2.93359-.91016 2.72265-2.898441-.16015-1.49219-1.6914-2.42578-3.45703-2.23438"/><path d="m52.576113 97.023439c.0352-.0156.0586-.0469.0508-.082-.008-.0352-.0156-.0742-.0234-.10938-.5625.15235-1.1836.27735-1.76172.36328.008.0352.0195.0742.0234.10938.008.0351.0391.0586.082.0547.0234 0 .0547-.004.0898-.004.19531-.0156.39453.0859.45313.38281l.78125 3.773441c.0625.30078-.0781.46875-.26172.53516-.0352.0117-.0664.0234-.0899.0312-.0391.0156-.0547.0508-.0508.082.008.0351.0156.0742.0234.10937.5625-.14844 1.18359-.27734 1.75781-.36328-.004-.0312-.0117-.0742-.0195-.10937-.008-.0352-.0391-.0547-.082-.0547-.0234.004-.0547.004-.0898.008-.19532.0117-.39063-.0898-.45313-.38672l-.78125-3.777341c-.0625-.29688.0781-.46485.26172-.53125.0352-.0117.0664-.0234.0898-.0312"/><path d="m57.302683 100.70703c-.97266.3086-2.08204-.46875-2.48047-1.730471-.39844-1.26172.0664-2.53125 1.03515-2.83593.97266-.3086 2.08203.46484 2.48047 1.73046.39844 1.26172-.0664 2.531251-1.03515 2.835941m-1.52735-4.843751c-1.45703.46094-2.27734 1.98047-1.83203 3.39063.44531 1.414061 1.98828 2.183591 3.44531 1.726561 1.45313-.46094 2.27344-1.976561 1.82813-3.386721-.44531-1.41406-1.98828-2.1875-3.44141-1.73047"/><path d="m77.560493 80.140629c.0195-.0352.008-.0742-.0195-.0977-.0274-.0156-.0625-.043-.0899-.0625-.3125.48828-.68359 1.00391-1.05078 1.45703.0274.0195.0625.043.0899.0625.0273.0234.0664.0156.0937-.0117.0195-.0195.0391-.0391.0625-.0664.14062-.14063.35156-.20313.59765-.0234l3.1211 2.25781c.25.17969.25781.40234.16796.57422-.0195.0312-.0312.0586-.043.082-.0195.0352-.0117.0742.0156.0937s.0625.0469.0937.0664c.3125-.49219.68359-1.00782 1.05078-1.45703-.0273-.0195-.0625-.0469-.0898-.0625-.0273-.0234-.0664-.0195-.0977.0117-.0156.0156-.0351.0391-.0625.0664-.13672.14063-.34765.19922-.59375.0195l-3.125-2.25781c-.24609-.17578-.25781-.39844-.16406-.57422.0156-.0273.0312-.0547.043-.0781"/><path d="m83.533143 79.671879c-.50781.8789-1.85156 1.05468-2.99609.39453-1.14453-.66407-1.66016-1.91407-1.15234-2.79688.51172-.8789 1.85156-1.05859 2.99609-.39453 1.14844.66406 1.66406 1.91406 1.15234 2.79688m-4.39453-2.54297c-.76562 1.32031-.34375 2.99218.9375 3.73437s2.94141.27344 3.70703-1.05078c.76172-1.32031.34375-2.99219-.9375-3.73437-1.28515-.74219-2.9414-.26954-3.70703 1.05078"/><path d="m64.080023 92.351559c-.5.30078-2.85938 1.52735-3.39063 1.76563.0156.0312.0352.0703.0508.0976.0156.0312.0547.0469.0937.0312.0195-.008.0508-.0156.0859-.0312.1836-.0625.40235-.0195.54297.25l1.77735 3.41797c.14062.26953.0508.46875-.10547.58594-.0312.0234-.0586.0391-.0742.0547-.0352.0234-.043.0586-.0312.0898.0195.0312.0391.0703.0547.0977.5-.29688 1.0625-.58985 1.59375-.82813-.0195-.0312-.0391-.0664-.0547-.0976s-.0508-.043-.0898-.0312c-.0234.008-.0508.0156-.0859.0312-.1875.0625-.40235.0195-.54297-.25l-.85547-1.64063.92578-.48437c.45703-.23828.67969-.082.88672.17968l.0937.1211c.0234.0273.0508.0391.10937.0117l.082-.0469-.85157-1.63281-.082.043c-.0586.0312-.0664.0625-.0547.0898l.043.15235c.10157.32031.0977.58593-.35937.82812l-.92578.48047-.74219-1.42578c-.14063-.26563-.0508-.46875.10937-.58594.0273-.0195.15235-.0937.24219-.14062.1211-.0625.19531-.10157.54688-.28125.58203-.3086.74218-.25391 1.57031.20703.0586.0312.0898.0312.14062.004l.0781-.043zm0 0"/><path d="m69.701113 94.648439c-.83593.57422-2.125.16015-2.875-.92969-.7539-1.08984-.68359-2.4375.15625-3.01562.83594-.57813 2.125-.16407 2.875.92578.75 1.08593.67969 2.4414-.15625 3.01953m-2.88281-4.1836c-1.25781.86719-1.59375 2.5586-.75391 3.77735.84375 1.21875 2.54297 1.5039 3.80079.64062 1.2539-.87109 1.59375-2.55859.75-3.77734-.83985-1.21875-2.53907-1.50781-3.79688-.64063"/><path d="m71.134713 88.460939-.19922-.21875c-.17188-.1875-.0977-.3711.0508-.55078.0273-.0312.0781-.0859.17187-.17188.45704-.41797 1.0625-.48437 1.51954.0195.62109.6836.25781 1.22266-.20704 1.64453-.0234.0234-.20312.1836-.37109.33985zm5.14843.78906c-.0352.0195-.043.0234-.0781.043-.23047.13672-.49219.0742-.9375-.0703l-1.94533-.61723c.30078-.48828.45312-1.09375-.0469-1.64063-.57812-.63671-1.58594-.30468-2.48437.51563-.61328.55859-.78907.76562-1.24219 1.13281.0234.0234.0547.0586.0781.082s.0586.0312.0937.008c.0195-.0156.0469-.0312.0742-.0547.16407-.10938.38282-.125.58985.10156l.19531.21484 2.39844 2.63282c.20703.22656.17187.4414.0469.59375-.0234.0273-.043.0547-.0586.0742-.0273.0312-.0273.0664 0 .0937.0195.0273.0508.0547.0742.082.40625-.41407.875-.84375 1.32812-1.21094-.0234-.0234-.0547-.0547-.0781-.082-.0234-.0274-.0586-.0312-.0937-.008-.0195.0156-.0469.0351-.0781.0508-.16015.11328-.3789.125-.58594-.0977l-1.24609-1.36719c.0508-.0508.10938-.10547.16406-.15625l.043-.0391c.33203-.30078.48438-.26172.78125-.16797l1.86719.59375c.26953.0859.48437.125.86328-.21875.1875-.17187.27734-.26562.45703-.41015-.0234-.0234-.0547-.0586-.0781-.0859-.0312-.0352-.0703-.0117-.10157.008"/><path d="m82.158143 73.511719-.26953-.11328c-.23828-.0977-.24609-.29297-.1914-.51953.0117-.043.0351-.11328.082-.23047.23437-.57422.7539-.89063 1.38281-.63281.85156.35156.75391.99609.51563 1.57812-.0156.0312-.10547.25391-.19141.46094zm4.99219-1.48828c-.0234.0352-.0234.0391-.0469.0742-.15235.21875-.41407.27343-.88282.33593l-2.01953.26954c.0625-.56641-.0586-1.17969-.74609-1.46094-.79297-.32813-1.55859.40234-2.02344 1.52734-.3164.76563-.38672 1.02735-.64062 1.55469.0312.0117.0742.0273.10547.043.0312.0117.0664 0 .0898-.0352.0117-.0234.0273-.0508.0469-.082.0977-.16797.28907-.27344.57032-.16016l.27343.11329 3.29297 1.35546c.28125.11329.34375.32422.29688.51563-.0117.0352-.0195.0664-.0234.0898-.0117.0391.004.0742.0391.0859.0312.0156.0703.0312.10157.043.1914-.54688.43359-1.13672.68359-1.65625-.0312-.0156-.0703-.0312-.10547-.0469-.0312-.0117-.0664 0-.0859.0352-.0156.0234-.0312.0469-.0469.0781-.10156.17187-.29297.27734-.57422.16015l-1.71484-.70312c.0273-.0703.0586-.13672.0859-.20703l.0234-.0547c.17188-.41406.32422-.44531.63281-.48828l1.94141-.25782c.28125-.0391.49219-.0937.6875-.57031.0937-.23437.13672-.35547.23437-.5664-.0273-.0117-.0703-.0273-.10156-.0391-.0469-.0234-.0703.0156-.0937.0469"/><path d="m75.880803 82.011719c-.043.0508-.043.082-.0273.11328.0625.14453.0586.28516-.0977.46094l-2.10937 2.39062c-.16407.1875-.30469.23438-.45313.16016-.0312-.0156-.0586-.0156-.10156.0312l-.0586.0703.22657.41797.47656.875.0586-.0703c.0469-.0508.0469-.082.0391-.11328l-.0508-.15625c-.125-.41016-.13281-.74219.25391-1.17969l.53906-.60938 3.01953 2.66797c.23047.20313.12891.47266.0312.63672-.0195.0352-.0937.15625-.10937.17969-.0195.0391-.0156.0742.008.0977.0274.0195.0586.0508.0859.0742.35937-.45703 1.05469-1.24609 1.46094-1.65625 0 0-.0586-.0547-.082-.0781-.0274-.0195-.0625-.0195-.0977.004-.0234.0195-.13281.10937-.16406.13281-.15235.11719-.41016.25-.63672.0469l-3.01953-2.66797.71875-.80859c.33984-.39062.60156-.32812.88672-.15234l.13671.0781c.0273.0195.0586.0195.10157-.0312l.0625-.0664-.70313-.6211-.33203-.29297zm0 0"/><path d="m2.5097128 75.906249-.0352-.0937c-.0312-.0742-.0625-.0859-.15234-.10156-.8086-.14844-1.53516003-.64063-1.82032003-1.33594-.44531-1.08203.28907-2.11328 1.51172003-2.61719 1.22266-.5039 2.5-.21875 2.91797.79297.35547.85938.0469 1.59766-.61328 2.16797-.0664.0547-.0781.10547-.0508.17578l.0391.10156 1.06641-.4414c.21875-.60547.1289-1.3711-.17969-2.11719-.57812-1.41016-2.16406-2.09375-3.53125-1.53125-1.50781003.62109-2.00781003 2.16406-1.42578003 3.57422.3125.76172.86328003 1.32031 1.49219003 1.60937zm0 0"/><path d="m40.673773 90.785159c-.51953.0117-1.22266-.28516-1.11328-1.14063.0781-.61719.46875-.99609.82422-1.25781.0742.0391.14062.0742.19922.10547.42968.26172 1.15234.5664 1.13281 1.29297-.0195.77343-.6211.99218-1.04297 1m-.92578-4.28516c.0117-.66406.53906-.88672.96875-.90234.53515-.0234.98437.33984.88672.94922-.0899.5625-.4375.90625-.73438 1.13281-.60547-.30078-1.13672-.58203-1.12109-1.17969m1.46875 1.35156c.36328-.2539.74609-.62109.87109-1.1875.25-1.11718-.84375-1.39453-1.37109-1.375-.49219.0156-1.58985.21485-1.6211 1.41797-.0195.84375.50782 1.25391.97266 1.51563-.46875.30078-.92578.66797-1.03906 1.24609-.23438 1.21094.77734 1.64453 1.64453 1.625.8125-.0156 1.69141-.45703 1.71875-1.66406.0195-.75-.49219-1.21485-1.17578-1.57813"/><path d="m49.583933 90.785159c-.51954.0117-1.22266-.28516-1.11719-1.14063.082-.61719.47265-.99609.82812-1.25781.0742.0391.14063.0742.19922.10547.42969.26172 1.15235.5664 1.13281 1.29297-.0234.77343-.62109.99218-1.04296 1m-.92579-4.28516c.0117-.66406.53907-.88672.96485-.90234.53906-.0234.98828.33984.89062.94922-.0898.5625-.4375.90625-.73437 1.13281-.60547-.30078-1.13672-.58203-1.1211-1.17969m1.46875 1.35156c.36329-.2539.7461-.62109.8711-1.1875.25-1.11718-.84375-1.39453-1.375-1.375-.48828.0156-1.58985.21485-1.61719 1.41797-.0195.84375.50781 1.25391.97266 1.51563-.46875.30078-.92578.66797-1.03907 1.24609-.23437 1.21094.77735 1.64453 1.64454 1.625.80859-.0156 1.6914-.45703 1.71875-1.66406.0195-.75-.4961-1.21485-1.17579-1.57813"/><path d="m37.681583 90.800779c-.0312-.008-.18359-.0312-.22265-.0391-.20704-.0391-.4961-.15234-.4961-.48438v-4.8789c0-.0781-.0156-.0937-.0586-.1211-.0547-.0312-.0977-.0195-.13281.0117-.35547.32422-.6211.46485-1.32032.53907-.0547.008-.0586.0391-.0586.0898 0 .0547.008.082.0703.0898l.28516.0352c.19531.0234.40234.0898.40234.5625v3.67187c0 .33204-.28906.44532-.49609.48438-.0391.008-.19141.0312-.22266.0391-.0469.0117-.0703.0352-.0703.0742v.12109c.62891-.0351 1.76562-.0351 2.39453 0v-.12109c0-.0391-.0273-.0625-.0742-.0742"/><path d="m44.017523 86.882809.15625-.86718h2.26172l.26172-.94532h-.0937c-.0508 0-.0781.0234-.0899.0508-.11718.26563-.23437.26563-.625.26563h-1.92187l-.39453 2.23828c.92968 0 2.40234.0391 2.32812 1.375-.0742 1.34766-1.69922 1.90234-2.4375 1.90234v.19141c.50781 0 2.98828-.17578 3.08203-2.20703.0859-1.84766-1.74218-1.99219-2.52734-2.00391"/></g></svg>